<svg xmlns="http://www.w3.org/2000/svg" width="256" height="256" viewBox="0 0 100 100"><rect width="100" height="100" rx="20" fill="#41a046"></rect><path d="M36.09 81.50L31.59 81.50Q30.61 81.50 30.06 80.92Q29.52 80.33 29.52 79.43L29.52 79.43L29.52 20.66Q29.52 19.67 30.06 19.09Q30.61 18.50 31.59 18.50L31.59 18.50L68.31 18.50Q69.31 18.50 69.89 19.09Q70.47 19.67 70.47 20.66L70.47 20.66L70.47 24.26Q70.47 25.25 69.89 25.79Q69.31 26.33 68.31 26.33L68.31 26.33L38.25 26.33L38.25 47.30L66.52 47.30Q67.50 47.30 68.09 47.88Q68.67 48.47 68.67 49.46L68.67 49.46L68.67 53.06Q68.67 53.96 68.09 54.55Q67.50 55.13 66.52 55.13L66.52 55.13L38.25 55.13L38.25 79.43Q38.25 80.33 37.67 80.92Q37.09 81.50 36.09 81.50L36.09 81.50Z" fill="#fff"></path></svg>